Renner-900-Black.ufo
<glyph name="parenright" format="1">
  <advance width="360"/>
  <unicode hex="0029"/>
  <outline>
    <contour>
      <point x="180" y="-200" type="curve"/>
      <point x="5" y="-200" type="line"/>
      <point x="75" y="-50"/>
      <point x="120" y="120"/>
      <point x="120" y="290" type="curve" smooth="yes"/>
      <point x="120" y="460"/>
      <point x="75" y="630"/>
      <point x="5" y="780" type="curve"/>
      <point x="180" y="780" type="line"/>
      <point x="260" y="630"/>
      <point x="305" y="460"/>
      <point x="305" y="290" type="curve" smooth="yes"/>
      <point x="305" y="120"/>
      <point x="260" y="-50"/>
    </contour>
  </outline>
</glyph>
<glyph name="comma" format="1">
  <advance width="333"/>
  <unicode hex="002C"/>
  <outline>
    <contour>
      <point x="103" y="110" type="line"/>
      <point x="298" y="76" type="line"/>
      <point x="163" y="-174" type="line"/>
      <point x="15" y="-149" type="line"/>
    </contour>
  </outline>
</glyph>
<glyph name="hyphen" format="1">
  <advance width="230"/>
  <unicode hex="002D"/>
  <outline>
    <contour>
      <point x="5" y="155" type="line"/>
      <point x="5" y="320" type="line"/>
      <point x="225" y="320" type="line"/>
      <point x="225" y="155" type="line"/>
    </contour>
  </outline>
</glyph>
<glyph name="four" format="1">
  <advance width="768"/>
  <unicode hex="0034"/>
  <outline>
    <contour>
      <point x="10" y="115" type="line"/>
      <point x="190" y="265" type="line"/>
      <point x="503" y="265" type="line" smooth="yes"/>
      <point x="520" y="300" type="line" smooth="yes"/>
      <point x="718" y="300" type="line"/>
      <point x="718" y="115" type="line"/>
    </contour>
    <contour>
      <point x="230" y="195" type="line"/>
      <point x="10" y="115" type="line"/>
      <point x="428" y="700" type="line"/>
      <point x="608" y="700" type="line"/>
      <point x="608" y="0" type="line"/>
      <point x="378" y="0" type="line"/>
      <point x="378" y="151" type="line" smooth="yes"/>
      <point x="408" y="162" type="line" smooth="yes"/>
      <point x="408" y="421" type="line"/>
    </contour>
  </outline>
</glyph>
<glyph name="Q" format="1">
  <advance width="908"/>
  <unicode hex="0051"/>
  <outline>
    <contour>
      <point x="263" y="350" type="curve" smooth="yes"/>
      <point x="263" y="227"/>
      <point x="347" y="158"/>
      <point x="445" y="158" type="curve" smooth="yes"/>
      <point x="543" y="158"/>
      <point x="607" y="217"/>
      <point x="607" y="320" type="curve" smooth="yes"/>
      <point x="607" y="423"/>
      <point x="548" y="522"/>
      <point x="425" y="522" type="curve" smooth="yes"/>
      <point x="327" y="522"/>
      <point x="263" y="453"/>
    </contour>
    <contour>
      <point x="30" y="350" type="curve" smooth="yes"/>
      <point x="30" y="574"/>
      <point x="206" y="720"/>
      <point x="425" y="720" type="curve" smooth="yes"/>
      <point x="649" y="720"/>
      <point x="810" y="574"/>
      <point x="810" y="350" type="curve" smooth="yes"/>
      <point x="810" y="126"/>
      <point x="654" y="-30"/>
      <point x="425" y="-30" type="curve" smooth="yes"/>
      <point x="196" y="-30"/>
      <point x="30" y="126"/>
    </contour>
    <contour>
      <point x="343" y="300" type="line"/>
      <point x="558" y="300" type="line"/>
      <point x="918" y="-20" type="line"/>
      <point x="693" y="-20" type="line"/>
    </contour>
  </outline>
</glyph>
<glyph name="sterling" format="1">
  <advance width="630"/>
  <unicode hex="00A3"/>
  <outline>
    <contour>
      <point x="67" y="370" type="line"/>
      <point x="457" y="370" type="line"/>
      <point x="457" y="255" type="line"/>
      <point x="67" y="255" type="line"/>
    </contour>
    <contour>
      <point x="425" y="459" type="line"/>
      <point x="421" y="502"/>
      <point x="407" y="546"/>
      <point x="341" y="546" type="curve" smooth="yes"/>
      <point x="301" y="546"/>
      <point x="268" y="526"/>
      <point x="268" y="480" type="curve" smooth="yes"/>
      <point x="268" y="414"/>
      <point x="358" y="386"/>
      <point x="358" y="274" type="curve" smooth="yes"/>
      <point x="358" y="168"/>
      <point x="206" y="70"/>
      <point x="132" y="50" type="curve"/>
      <point x="214" y="175" type="line"/>
      <point x="552" y="175" type="line"/>
      <point x="552" y="0" type="line"/>
      <point x="44" y="0" type="line"/>
      <point x="142" y="102"/>
      <point x="172" y="201"/>
      <point x="172" y="309" type="curve" smooth="yes"/>
      <point x="172" y="403"/>
      <point x="66" y="417"/>
      <point x="66" y="523" type="curve" smooth="yes"/>
      <point x="66" y="642"/>
      <point x="192" y="710"/>
      <point x="331" y="710" type="curve" smooth="yes"/>
      <point x="494" y="710"/>
      <point x="596" y="613"/>
      <point x="601" y="523" type="curve"/>
    </contour>
  </outline>
</glyph>
<glyph name="degree" format="1">
  <advance width="308"/>
  <unicode hex="00B0"/>
  <outline>
    <contour>
      <point x="15" y="595" type="curve" smooth="yes"/>
      <point x="15" y="669"/>
      <point x="73" y="720"/>
      <point x="153" y="720" type="curve" smooth="yes"/>
      <point x="233" y="720"/>
      <point x="293" y="669"/>
      <point x="293" y="595" type="curve" smooth="yes"/>
      <point x="293" y="521"/>
      <point x="233" y="470"/>
      <point x="153" y="470" type="curve" smooth="yes"/>
      <point x="73" y="470"/>
      <point x="15" y="521"/>
    </contour>
    <contour>
      <point x="110" y="595" type="curve" smooth="yes"/>
      <point x="110" y="567"/>
      <point x="128" y="551"/>
      <point x="153" y="551" type="curve" smooth="yes"/>
      <point x="178" y="551"/>
      <point x="197" y="567"/>
      <point x="197" y="595" type="curve" smooth="yes"/>
      <point x="197" y="623"/>
      <point x="178" y="640"/>
      <point x="153" y="640" type="curve" smooth="yes"/>
      <point x="128" y="640"/>
      <point x="110" y="623"/>
    </contour>
  </outline>
</glyph>
<glyph name="paragraph" format="1">
  <advance width="728"/>
  <unicode hex="00B6"/>
  <outline>
    <contour>
      <point x="288" y="590" type="line"/>
      <point x="288" y="700" type="line"/>
      <point x="538" y="700" type="line"/>
      <point x="538" y="590" type="line"/>
    </contour>
    <contour>
      <point x="498" y="700" type="line"/>
      <point x="668" y="700" type="line"/>
      <point x="668" y="-220" type="line"/>
      <point x="498" y="-220" type="line"/>
    </contour>
    <contour>
      <point x="288" y="700" type="line"/>
      <point x="458" y="700" type="line"/>
      <point x="458" y="-220" type="line"/>
      <point x="288" y="-220" type="line"/>
    </contour>
    <contour>
      <point x="288" y="270" type="line"/>
      <point x="163" y="270"/>
      <point x="60" y="346"/>
      <point x="60" y="485" type="curve" smooth="yes"/>
      <point x="60" y="624"/>
      <point x="163" y="700"/>
      <point x="288" y="700" type="curve"/>
    </contour>
  </outline>
</glyph>
<glyph name="cedilla" format="1">
  <advance width="420"/>
  <unicode hex="00B8"/>
  <outline>
    <contour>
      <point x="176" y="78" type="line"/>
      <point x="316" y="72" type="line"/>
      <point x="186" y="-94" type="line"/>
      <point x="87" y="-133" type="line"/>
    </contour>
    <contour>
      <point x="372" y="-162" type="curve"/>
      <point x="251" y="-148" type="line"/>
      <point x="251" y="-120"/>
      <point x="213" y="-118"/>
      <point x="184" y="-118" type="curve" smooth="yes"/>
      <point x="174" y="-118"/>
      <point x="130" y="-119"/>
      <point x="87" y="-133" type="curve"/>
      <point x="166" y="-86" type="line"/>
      <point x="194" y="-56"/>
      <point x="226" y="-50"/>
      <point x="269" y="-50" type="curve" smooth="yes"/>
      <point x="313" y="-50"/>
      <point x="372" y="-86"/>
    </contour>
    <contour>
      <point x="372" y="-162" type="line"/>
      <point x="372" y="-241"/>
      <point x="294" y="-280"/>
      <point x="226" y="-280" type="curve" smooth="yes"/>
      <point x="159" y="-280"/>
      <point x="107" y="-271"/>
      <point x="49" y="-240" type="curve"/>
      <point x="102" y="-154" type="line"/>
      <point x="131" y="-174"/>
      <point x="178" y="-180"/>
      <point x="194" y="-180" type="curve" smooth="yes"/>
      <point x="228" y="-180"/>
      <point x="251" y="-172"/>
      <point x="251" y="-148" type="curve"/>
    </contour>
  </outline>
</glyph>
<glyph name="Adieresis" format="1">
  <advance width="780"/>
  <unicode hex="00C4"/>
  <outline>
    <contour>
      <point x="207" y="90" type="line"/>
      <point x="207" y="248" type="line"/>
      <point x="577" y="248" type="line"/>
      <point x="577" y="90" type="line"/>
    </contour>
    <contour>
      <point x="390" y="382" type="line"/>
      <point x="304" y="189" type="line"/>
      <point x="321" y="139" type="line"/>
      <point x="245" y="0" type="line"/>
      <point x="-5" y="0" type="line"/>
      <point x="390" y="750" type="line"/>
      <point x="785" y="0" type="line"/>
      <point x="535" y="0" type="line"/>
      <point x="461" y="132" type="line"/>
      <point x="476" y="189" type="line"/>
    </contour>
    <contour>
      <point x="457" y="815" type="curve" smooth="yes"/>
      <point x="457" y="878"/>
      <point x="505" y="930"/>
      <point x="575" y="930" type="curve" smooth="yes"/>
      <point x="645" y="930"/>
      <point x="693" y="878"/>
      <point x="693" y="815" type="curve" smooth="yes"/>
      <point x="693" y="752"/>
      <point x="645" y="700"/>
      <point x="575" y="700" type="curve" smooth="yes"/>
      <point x="505" y="700"/>
      <point x="457" y="752"/>
    </contour>
    <contour>
      <point x="87" y="815" type="curve" smooth="yes"/>
      <point x="87" y="878"/>
      <point x="135" y="930"/>
      <point x="205" y="930" type="curve" smooth="yes"/>
      <point x="275" y="930"/>
      <point x="323" y="878"/>
      <point x="323" y="815" type="curve" smooth="yes"/>
      <point x="323" y="752"/>
      <point x="275" y="700"/>
      <point x="205" y="700" type="curve" smooth="yes"/>
      <point x="135" y="700"/>
      <point x="87" y="752"/>
    </contour>
  </outline>
</glyph>
<glyph name="Edieresis" format="1">
  <advance width="635"/>
  <unicode hex="00CB"/>
  <outline>
    <contour>
      <point x="222" y="0" type="line"/>
      <point x="222" y="175" type="line"/>
      <point x="575" y="175" type="line"/>
      <point x="575" y="0" type="line"/>
    </contour>
    <contour>
      <point x="222" y="525" type="line"/>
      <point x="222" y="700" type="line"/>
      <point x="575" y="700" type="line"/>
      <point x="575" y="525" type="line"/>
    </contour>
    <contour>
      <point x="222" y="275" type="line"/>
      <point x="222" y="445" type="line"/>
      <point x="555" y="445" type="line"/>
      <point x="555" y="275" type="line"/>
    </contour>
    <contour>
      <point x="70" y="700" type="line"/>
      <point x="280" y="700" type="line"/>
      <point x="280" y="0" type="line"/>
      <point x="70" y="0" type="line"/>
    </contour>
    <contour>
      <point x="340" y="895" type="curve" smooth="yes"/>
      <point x="340" y="958"/>
      <point x="388" y="1010"/>
      <point x="458" y="1010" type="curve" smooth="yes"/>
      <point x="528" y="1010"/>
      <point x="576" y="958"/>
      <point x="576" y="895" type="curve" smooth="yes"/>
      <point x="576" y="832"/>
      <point x="528" y="780"/>
      <point x="458" y="780" type="curve" smooth="yes"/>
      <point x="388" y="780"/>
      <point x="340" y="832"/>
    </contour>
    <contour>
      <point x="70" y="895" type="curve" smooth="yes"/>
      <point x="70" y="958"/>
      <point x="118" y="1010"/>
      <point x="188" y="1010" type="curve" smooth="yes"/>
      <point x="258" y="1010"/>
      <point x="306" y="958"/>
      <point x="306" y="895" type="curve" smooth="yes"/>
      <point x="306" y="832"/>
      <point x="258" y="780"/>
      <point x="188" y="780" type="curve" smooth="yes"/>
      <point x="118" y="780"/>
      <point x="70" y="832"/>
    </contour>
  </outline>
</glyph>
<glyph name="Idieresis" format="1">
  <advance width="365"/>
  <unicode hex="00CF"/>
  <outline>
    <contour>
      <point x="70" y="700" type="line"/>
      <point x="295" y="700" type="line"/>
      <point x="295" y="0" type="line"/>
      <point x="70" y="0" type="line"/>
    </contour>
    <contour>
      <point x="200" y="895" type="curve" smooth="yes"/>
      <point x="200" y="958"/>
      <point x="248" y="1010"/>
      <point x="318" y="1010" type="curve" smooth="yes"/>
      <point x="388" y="1010"/>
      <point x="436" y="958"/>
      <point x="436" y="895" type="curve" smooth="yes"/>
      <point x="436" y="832"/>
      <point x="388" y="780"/>
      <point x="318" y="780" type="curve" smooth="yes"/>
      <point x="248" y="780"/>
      <point x="200" y="832"/>
    </contour>
    <contour>
      <point x="-70" y="895" type="curve" smooth="yes"/>
      <point x="-70" y="958"/>
      <point x="-22" y="1010"/>
      <point x="48" y="1010" type="curve" smooth="yes"/>
      <point x="118" y="1010"/>
      <point x="166" y="958"/>
      <point x="166" y="895" type="curve" smooth="yes"/>
      <point x="166" y="832"/>
      <point x="118" y="780"/>
      <point x="48" y="780" type="curve" smooth="yes"/>
      <point x="-22" y="780"/>
      <point x="-70" y="832"/>
    </contour>
  </outline>
</glyph>
<glyph name="Oacute" format="1">
  <advance width="840"/>
  <unicode hex="00D3"/>
  <outline>
    <contour>
      <point x="263" y="350" type="curve" smooth="yes"/>
      <point x="263" y="247"/>
      <point x="322" y="178"/>
      <point x="420" y="178" type="curve" smooth="yes"/>
      <point x="518" y="178"/>
      <point x="577" y="247"/>
      <point x="577" y="350" type="curve" smooth="yes"/>
      <point x="577" y="453"/>
      <point x="523" y="522"/>
      <point x="420" y="522" type="curve" smooth="yes"/>
      <point x="322" y="522"/>
      <point x="263" y="453"/>
    </contour>
    <contour>
      <point x="30" y="350" type="curve" smooth="yes"/>
      <point x="30" y="574"/>
      <point x="201" y="720"/>
      <point x="420" y="720" type="curve" smooth="yes"/>
      <point x="644" y="720"/>
      <point x="810" y="574"/>
      <point x="810" y="350" type="curve" smooth="yes"/>
      <point x="810" y="126"/>
      <point x="649" y="-30"/>
      <point x="420" y="-30" type="curve" smooth="yes"/>
      <point x="191" y="-30"/>
      <point x="30" y="126"/>
    </contour>
    <contour>
      <point x="610" y="940" type="line"/>
      <point x="430" y="790" type="line"/>
      <point x="320" y="840" type="line"/>
      <point x="470" y="1000" type="line"/>
    </contour>
  </outline>
</glyph>
<glyph name="Udieresis" format="1">
  <advance width="746"/>
  <unicode hex="00DC"/>
  <outline>
    <contour>
      <point x="65" y="700" type="line"/>
      <point x="285" y="700" type="line"/>
      <point x="285" y="250" type="line" smooth="yes"/>
      <point x="285" y="194"/>
      <point x="313" y="155"/>
      <point x="373" y="155" type="curve" smooth="yes"/>
      <point x="433" y="155"/>
      <point x="461" y="194"/>
      <point x="461" y="250" type="curve" smooth="yes"/>
      <point x="461" y="700" type="line"/>
      <point x="681" y="700" type="line"/>
      <point x="681" y="230" type="line" smooth="yes"/>
      <point x="681" y="31"/>
      <point x="538" y="-40"/>
      <point x="373" y="-40" type="curve" smooth="yes"/>
      <point x="208" y="-40"/>
      <point x="65" y="31"/>
      <point x="65" y="230" type="curve" smooth="yes"/>
    </contour>
    <contour>
      <point x="411" y="895" type="curve" smooth="yes"/>
      <point x="411" y="958"/>
      <point x="459" y="1010"/>
      <point x="529" y="1010" type="curve" smooth="yes"/>
      <point x="599" y="1010"/>
      <point x="647" y="958"/>
      <point x="647" y="895" type="curve" smooth="yes"/>
      <point x="647" y="832"/>
      <point x="599" y="780"/>
      <point x="529" y="780" type="curve" smooth="yes"/>
      <point x="459" y="780"/>
      <point x="411" y="832"/>
    </contour>
    <contour>
      <point x="99" y="895" type="curve" smooth="yes"/>
      <point x="99" y="958"/>
      <point x="147" y="1010"/>
      <point x="217" y="1010" type="curve" smooth="yes"/>
      <point x="287" y="1010"/>
      <point x="335" y="958"/>
      <point x="335" y="895" type="curve" smooth="yes"/>
      <point x="335" y="832"/>
      <point x="287" y="780"/>
      <point x="217" y="780" type="curve" smooth="yes"/>
      <point x="147" y="780"/>
      <point x="99" y="832"/>
    </contour>
  </outline>
</glyph>
<glyph name="adieresis" format="1">
  <advance width="580"/>
  <unicode hex="00E4"/>
  <outline>
    <contour>
      <point x="216" y="139" type="curve" smooth="yes"/>
      <point x="216" y="115"/>
      <point x="238" y="106"/>
      <point x="263" y="106" type="curve" smooth="yes"/>
      <point x="303" y="106"/>
      <point x="345" y="124"/>
      <point x="345" y="190" type="curve"/>
      <point x="361" y="130" type="line"/>
      <point x="361" y="41"/>
      <point x="288" y="-10"/>
      <point x="193" y="-10" type="curve" smooth="yes"/>
      <point x="88" y="-10"/>
      <point x="20" y="41"/>
      <point x="20" y="130" type="curve" smooth="yes"/>
      <point x="20" y="217"/>
      <point x="100" y="275"/>
      <point x="221" y="275" type="curve" smooth="yes"/>
      <point x="279" y="275"/>
      <point x="354" y="257"/>
      <point x="378" y="233" type="curve"/>
      <point x="378" y="147" type="line"/>
      <point x="350" y="169"/>
      <point x="323" y="180"/>
      <point x="275" y="180" type="curve" smooth="yes"/>
      <point x="241" y="180"/>
      <point x="216" y="163"/>
    </contour>
    <contour>
      <point x="121" y="298" type="curve"/>
      <point x="62" y="424" type="line"/>
      <point x="126" y="449"/>
      <point x="210" y="475"/>
      <point x="293" y="475" type="curve" smooth="yes"/>
      <point x="428" y="475"/>
      <point x="530" y="419"/>
      <point x="530" y="320" type="curve" smooth="yes"/>
      <point x="530" y="0" type="line"/>
      <point x="345" y="0" type="line"/>
      <point x="345" y="272" type="line" smooth="yes"/>
      <point x="345" y="307"/>
      <point x="323" y="333"/>
      <point x="273" y="333" type="curve" smooth="yes"/>
      <point x="207" y="333"/>
      <point x="143" y="309"/>
    </contour>
    <contour>
      <point x="310" y="650" type="curve" smooth="yes"/>
      <point x="310" y="713"/>
      <point x="358" y="765"/>
      <point x="428" y="765" type="curve" smooth="yes"/>
      <point x="498" y="765"/>
      <point x="546" y="713"/>
      <point x="546" y="650" type="curve" smooth="yes"/>
      <point x="546" y="587"/>
      <point x="498" y="535"/>
      <point x="428" y="535" type="curve" smooth="yes"/>
      <point x="358" y="535"/>
      <point x="310" y="587"/>
    </contour>
    <contour>
      <point x="40" y="650" type="curve" smooth="yes"/>
      <point x="40" y="713"/>
      <point x="88" y="765"/>
      <point x="158" y="765" type="curve" smooth="yes"/>
      <point x="228" y="765"/>
      <point x="276" y="713"/>
      <point x="276" y="650" type="curve" smooth="yes"/>
      <point x="276" y="587"/>
      <point x="228" y="535"/>
      <point x="158" y="535" type="curve" smooth="yes"/>
      <point x="88" y="535"/>
      <point x="40" y="587"/>
    </contour>
  </outline>
</glyph>
<glyph name="idieresis" format="1">
  <advance width="286"/>
  <unicode hex="00EF"/>
  <outline>
    <contour>
      <point x="49" y="460" type="line"/>
      <point x="236" y="460" type="line"/>
      <point x="236" y="0" type="line"/>
      <point x="49" y="0" type="line"/>
    </contour>
    <contour>
      <point x="160" y="646" type="curve" smooth="yes"/>
      <point x="160" y="709"/>
      <point x="208" y="761"/>
      <point x="278" y="761" type="curve" smooth="yes"/>
      <point x="348" y="761"/>
      <point x="396" y="709"/>
      <point x="396" y="646" type="curve" smooth="yes"/>
      <point x="396" y="583"/>
      <point x="348" y="531"/>
      <point x="278" y="531" type="curve" smooth="yes"/>
      <point x="208" y="531"/>
      <point x="160" y="583"/>
    </contour>
    <contour>
      <point x="-110" y="646" type="curve" smooth="yes"/>
      <point x="-110" y="709"/>
      <point x="-62" y="761"/>
      <point x="8" y="761" type="curve" smooth="yes"/>
      <point x="78" y="761"/>
      <point x="126" y="709"/>
      <point x="126" y="646" type="curve" smooth="yes"/>
      <point x="126" y="583"/>
      <point x="78" y="531"/>
      <point x="8" y="531" type="curve" smooth="yes"/>
      <point x="-62" y="531"/>
      <point x="-110" y="583"/>
    </contour>
  </outline>
</glyph>
<glyph name="ydieresis" format="1">
  <advance width="570"/>
  <unicode hex="00FF"/>
  <outline>
    <contour>
      <point x="585" y="460" type="line"/>
      <point x="285" y="-220" type="line"/>
      <point x="95" y="-220" type="line"/>
      <point x="198" y="20" type="line"/>
      <point x="-15" y="460" type="line"/>
      <point x="195" y="460" type="line"/>
      <point x="345" y="85" type="line"/>
      <point x="240" y="85" type="line"/>
      <point x="390" y="460" type="line"/>
    </contour>
    <contour>
      <point x="302" y="646" type="curve" smooth="yes"/>
      <point x="302" y="709"/>
      <point x="350" y="761"/>
      <point x="420" y="761" type="curve" smooth="yes"/>
      <point x="490" y="761"/>
      <point x="538" y="709"/>
      <point x="538" y="646" type="curve" smooth="yes"/>
      <point x="538" y="583"/>
      <point x="490" y="531"/>
      <point x="420" y="531" type="curve" smooth="yes"/>
      <point x="350" y="531"/>
      <point x="302" y="583"/>
    </contour>
    <contour>
      <point x="32" y="646" type="curve" smooth="yes"/>
      <point x="32" y="709"/>
      <point x="80" y="761"/>
      <point x="150" y="761" type="curve" smooth="yes"/>
      <point x="220" y="761"/>
      <point x="268" y="709"/>
      <point x="268" y="646" type="curve" smooth="yes"/>
      <point x="268" y="583"/>
      <point x="220" y="531"/>
      <point x="150" y="531" type="curve" smooth="yes"/>
      <point x="80" y="531"/>
      <point x="32" y="583"/>
    </contour>
  </outline>
</glyph>
<glyph name="Edotaccent" format="1">
  <advance width="635"/>
  <unicode hex="0116"/>
  <outline>
    <contour>
      <point x="222" y="0" type="line"/>
      <point x="222" y="175" type="line"/>
      <point x="575" y="175" type="line"/>
      <point x="575" y="0" type="line"/>
    </contour>
    <contour>
      <point x="222" y="525" type="line"/>
      <point x="222" y="700" type="line"/>
      <point x="575" y="700" type="line"/>
      <point x="575" y="525" type="line"/>
    </contour>
    <contour>
      <point x="222" y="275" type="line"/>
      <point x="222" y="445" type="line"/>
      <point x="555" y="445" type="line"/>
      <point x="555" y="275" type="line"/>
    </contour>
    <contour>
      <point x="70" y="700" type="line"/>
      <point x="280" y="700" type="line"/>
      <point x="280" y="0" type="line"/>
      <point x="70" y="0" type="line"/>
    </contour>
    <contour>
      <point x="204" y="895" type="curve" smooth="yes"/>
      <point x="204" y="958"/>
      <point x="252" y="1010"/>
      <point x="322" y="1010" type="curve" smooth="yes"/>
      <point x="392" y="1010"/>
      <point x="440" y="958"/>
      <point x="440" y="895" type="curve" smooth="yes"/>
      <point x="440" y="832"/>
      <point x="392" y="780"/>
      <point x="322" y="780" type="curve" smooth="yes"/>
      <point x="252" y="780"/>
      <point x="204" y="832"/>
    </contour>
  </outline>
</glyph>
<glyph name="eogonek" format="1">
  <advance width="609"/>
  <unicode hex="0119"/>
  <outline>
    <contour>
      <point x="96" y="190" type="line"/>
      <point x="96" y="284" type="line"/>
      <point x="559" y="284" type="line"/>
      <point x="573" y="190" type="line"/>
    </contour>
    <contour>
      <point x="370" y="240" type="line" smooth="yes"/>
      <point x="370" y="316"/>
      <point x="353" y="350"/>
      <point x="303" y="350" type="curve" smooth="yes"/>
      <point x="253" y="350"/>
      <point x="228" y="316"/>
      <point x="228" y="250" type="curve"/>
      <point x="226" y="230" type="line"/>
      <point x="226" y="144"/>
      <point x="268" y="120"/>
      <point x="308" y="120" type="curve" smooth="yes"/>
      <point x="355" y="120"/>
      <point x="388" y="135"/>
      <point x="404" y="165" type="curve"/>
      <point x="582" y="137" type="line"/>
      <point x="536" y="47"/>
      <point x="457" y="-10"/>
      <point x="318" y="-10" type="curve" smooth="yes"/>
      <point x="123" y="-10"/>
      <point x="30" y="91"/>
      <point x="30" y="230" type="curve" smooth="yes"/>
      <point x="30" y="247"/>
      <point x="31" y="263"/>
      <point x="34" y="279" type="curve" smooth="yes"/>
      <point x="53" y="392"/>
      <point x="139" y="470"/>
      <point x="308" y="470" type="curve" smooth="yes"/>
      <point x="488" y="470"/>
      <point x="575" y="384"/>
      <point x="575" y="239" type="curve" smooth="yes"/>
      <point x="575" y="231"/>
      <point x="575" y="211"/>
      <point x="573" y="190" type="curve"/>
      <point x="370" y="210" type="line"/>
    </contour>
    <contour>
      <point x="354" y="-107" type="curve"/>
      <point x="387" y="-187" type="line"/>
      <point x="372" y="-207"/>
      <point x="342" y="-227"/>
      <point x="279" y="-227" type="curve" smooth="yes"/>
      <point x="225" y="-227"/>
      <point x="166" y="-196"/>
      <point x="166" y="-127" type="curve"/>
      <point x="276" y="-97" type="line"/>
      <point x="276" y="-115"/>
      <point x="284" y="-127"/>
      <point x="304" y="-127" type="curve" smooth="yes"/>
      <point x="320" y="-127"/>
      <point x="340" y="-120"/>
    </contour>
    <contour>
      <point x="276" y="-97" type="curve"/>
      <point x="166" y="-127" type="line"/>
      <point x="166" y="-58"/>
      <point x="238" y="-18"/>
      <point x="308" y="18" type="curve"/>
      <point x="349" y="-7" type="line"/>
      <point x="297" y="-39"/>
      <point x="276" y="-70"/>
    </contour>
  </outline>
</glyph>
<glyph name="Gdotaccent" format="1">
  <advance width="838"/>
  <unicode hex="0120"/>
  <outline>
    <contour>
      <point x="430" y="240" type="line"/>
      <point x="430" y="400" type="line"/>
      <point x="802" y="400" type="line"/>
      <point x="692" y="240" type="line"/>
    </contour>
    <contour>
      <point x="802" y="400" type="line"/>
      <point x="822" y="161"/>
      <point x="684" y="-30"/>
      <point x="430" y="-30" type="curve" smooth="yes"/>
      <point x="196" y="-30"/>
      <point x="30" y="121"/>
      <point x="30" y="350" type="curve" smooth="yes"/>
      <point x="30" y="579"/>
      <point x="206" y="720"/>
      <point x="440" y="720" type="curve" smooth="yes"/>
      <point x="599" y="720"/>
      <point x="701" y="641"/>
      <point x="771" y="544" type="curve"/>
      <point x="566" y="452" type="line"/>
      <point x="542" y="496"/>
      <point x="507" y="535"/>
      <point x="440" y="535" type="curve" smooth="yes"/>
      <point x="342" y="535"/>
      <point x="260" y="473"/>
      <point x="260" y="350" type="curve" smooth="yes"/>
      <point x="260" y="227"/>
      <point x="332" y="155"/>
      <point x="440" y="155" type="curve" smooth="yes"/>
      <point x="588" y="155"/>
      <point x="612" y="267"/>
      <point x="612" y="400" type="curve"/>
    </contour>
    <contour>
      <point x="322" y="895" type="curve" smooth="yes"/>
      <point x="322" y="958"/>
      <point x="370" y="1010"/>
      <point x="440" y="1010" type="curve" smooth="yes"/>
      <point x="510" y="1010"/>
      <point x="558" y="958"/>
      <point x="558" y="895" type="curve" smooth="yes"/>
      <point x="558" y="832"/>
      <point x="510" y="780"/>
      <point x="440" y="780" type="curve" smooth="yes"/>
      <point x="370" y="780"/>
      <point x="322" y="832"/>
    </contour>
  </outline>
</glyph>
<glyph name="dotlessi" format="1">
  <advance width="286"/>
  <unicode hex="0131"/>
  <outline>
    <contour>
      <point x="49" y="460" type="line"/>
      <point x="236" y="460" type="line"/>
      <point x="236" y="0" type="line"/>
      <point x="49" y="0" type="line"/>
    </contour>
  </outline>
</glyph>
<glyph name="jcircumflex" format="1">
  <advance width="285"/>
  <unicode hex="0135"/>
  <outline>
    <contour>
      <point x="-43" y="-55" type="line"/>
      <point x="-30" y="-70"/>
      <point x="-17" y="-80"/>
      <point x="2" y="-80" type="curve" smooth="yes"/>
      <point x="32" y="-80"/>
      <point x="50" y="-61"/>
      <point x="50" y="-25" type="curve" smooth="yes"/>
      <point x="50" y="460" type="line"/>
      <point x="235" y="460" type="line"/>
      <point x="235" y="-80" type="line" smooth="yes"/>
      <point x="235" y="-179"/>
      <point x="171" y="-250"/>
      <point x="37" y="-250" type="curve" smooth="yes"/>
      <point x="-46" y="-250"/>
      <point x="-89" y="-213"/>
      <point x="-114" y="-193" type="curve"/>
    </contour>
    <contour>
      <point x="142" y="611" type="line"/>
      <point x="62" y="531" type="line"/>
      <point x="-78" y="621" type="line"/>
      <point x="142" y="761" type="line"/>
      <point x="362" y="621" type="line"/>
      <point x="222" y="531" type="line"/>
    </contour>
  </outline>
</glyph>
<glyph name="ldot" format="1">
  <advance width="541"/>
  <unicode hex="0140"/>
  <outline>
    <contour>
      <point x="50" y="780" type="line"/>
      <point x="245" y="780" type="line"/>
      <point x="245" y="0" type="line"/>
      <point x="50" y="0" type="line"/>
    </contour>
    <contour>
      <point x="275" y="405" type="curve" smooth="yes"/>
      <point x="275" y="468"/>
      <point x="323" y="520"/>
      <point x="393" y="520" type="curve" smooth="yes"/>
      <point x="463" y="520"/>
      <point x="511" y="468"/>
      <point x="511" y="405" type="curve" smooth="yes"/>
      <point x="511" y="342"/>
      <point x="463" y="290"/>
      <point x="393" y="290" type="curve" smooth="yes"/>
      <point x="323" y="290"/>
      <point x="275" y="342"/>
    </contour>
  </outline>
</glyph>
<glyph name="racute" format="1">
  <advance width="453"/>
  <unicode hex="0155"/>
  <outline>
    <contour>
      <point x="240" y="460" type="line"/>
      <point x="240" y="0" type="line"/>
      <point x="50" y="0" type="line"/>
      <point x="50" y="460" type="line"/>
    </contour>
    <contour>
      <point x="369" y="262" type="line"/>
      <point x="357" y="278"/>
      <point x="338" y="290"/>
      <point x="312" y="290" type="curve" smooth="yes"/>
      <point x="277" y="290"/>
      <point x="240" y="261"/>
      <point x="240" y="195" type="curve"/>
      <point x="204" y="280" type="line"/>
      <point x="204" y="389"/>
      <point x="282" y="472"/>
      <point x="367" y="472" type="curve" smooth="yes"/>
      <point x="400" y="472"/>
      <point x="436" y="452"/>
      <point x="448" y="430" type="curve"/>
    </contour>
    <contour>
      <point x="429" y="682" type="line"/>
      <point x="249" y="532" type="line"/>
      <point x="139" y="582" type="line"/>
      <point x="289" y="742" type="line"/>
    </contour>
  </outline>
</glyph>
<glyph name="Ydieresis" format="1">
  <advance width="720"/>
  <unicode hex="0178"/>
  <outline>
    <contour>
      <point x="248" y="360" type="line"/>
      <point x="473" y="360" type="line"/>
      <point x="473" y="0" type="line"/>
      <point x="248" y="0" type="line"/>
    </contour>
    <contour>
      <point x="470" y="700" type="line"/>
      <point x="725" y="700" type="line"/>
      <point x="360" y="84" type="line"/>
      <point x="-5" y="700" type="line"/>
      <point x="250" y="700" type="line"/>
      <point x="360" y="474" type="line"/>
    </contour>
    <contour>
      <point x="397" y="895" type="curve" smooth="yes"/>
      <point x="397" y="958"/>
      <point x="445" y="1010"/>
      <point x="515" y="1010" type="curve" smooth="yes"/>
      <point x="585" y="1010"/>
      <point x="633" y="958"/>
      <point x="633" y="895" type="curve" smooth="yes"/>
      <point x="633" y="832"/>
      <point x="585" y="780"/>
      <point x="515" y="780" type="curve" smooth="yes"/>
      <point x="445" y="780"/>
      <point x="397" y="832"/>
    </contour>
    <contour>
      <point x="87" y="895" type="curve" smooth="yes"/>
      <point x="87" y="958"/>
      <point x="135" y="1010"/>
      <point x="205" y="1010" type="curve" smooth="yes"/>
      <point x="275" y="1010"/>
      <point x="323" y="958"/>
      <point x="323" y="895" type="curve" smooth="yes"/>
      <point x="323" y="832"/>
      <point x="275" y="780"/>
      <point x="205" y="780" type="curve" smooth="yes"/>
      <point x="135" y="780"/>
      <point x="87" y="832"/>
    </contour>
  </outline>
</glyph>
<glyph name="uni203D" format="1">
  <advance width="669"/>
  <unicode hex="203D"/>
  <outline>
    <contour>
      <point x="445" y="470" type="curve" smooth="yes"/>
      <point x="445" y="536"/>
      <point x="394" y="565"/>
      <point x="319" y="565" type="curve" smooth="yes"/>
      <point x="262" y="565"/>
      <point x="196" y="546"/>
      <point x="165" y="476" type="curve"/>
      <point x="40" y="587" type="line"/>
      <point x="86" y="657"/>
      <point x="210" y="723"/>
      <point x="339" y="723" type="curve" smooth="yes"/>
      <point x="474" y="723"/>
      <point x="619" y="649"/>
      <point x="619" y="500" type="curve" smooth="yes"/>
      <point x="619" y="331"/>
      <point x="421" y="270"/>
      <point x="306" y="270" type="curve"/>
      <point x="306" y="350" type="line"/>
      <point x="366" y="350"/>
      <point x="445" y="394"/>
    </contour>
    <contour>
      <point x="225" y="500" type="line"/>
      <point x="397" y="500" type="line"/>
      <point x="365" y="220" type="line"/>
      <point x="257" y="220" type="line"/>
    </contour>
    <contour>
      <point x="200" y="75" type="curve" smooth="yes"/>
      <point x="200" y="135"/>
      <point x="250" y="180"/>
      <point x="320" y="180" type="curve" smooth="yes"/>
      <point x="390" y="180"/>
      <point x="440" y="135"/>
      <point x="440" y="75" type="curve" smooth="yes"/>
      <point x="440" y="15"/>
      <point x="390" y="-30"/>
      <point x="320" y="-30" type="curve" smooth="yes"/>
      <point x="250" y="-30"/>
      <point x="200" y="15"/>
    </contour>
  </outline>
</glyph>
<glyph name="uni2084" format="1">
  <advance width="459"/>
  <unicode hex="2084"/>
  <outline>
    <contour>
      <point x="5" y="69" type="line"/>
      <point x="113" y="159" type="line"/>
      <point x="301" y="159" type="line" smooth="yes"/>
      <point x="311" y="180" type="line" smooth="yes"/>
      <point x="430" y="180" type="line"/>
      <point x="430" y="69" type="line"/>
    </contour>
    <contour>
      <point x="137" y="117" type="line"/>
      <point x="5" y="69" type="line"/>
      <point x="256" y="420" type="line"/>
      <point x="364" y="420" type="line"/>
      <point x="364" y="0" type="line"/>
      <point x="226" y="0" type="line"/>
      <point x="226" y="91" type="line" smooth="yes"/>
      <point x="244" y="97" type="line" smooth="yes"/>
      <point x="244" y="253" type="line"/>
    </contour>
  </outline>
</glyph>
<glyph name="uniFF10" format="1">
  <advance width="660"/>
  <unicode hex="FF10"/>
  <outline>
    <contour>
      <point x="229" y="350" type="curve" smooth="yes"/>
      <point x="229" y="237"/>
      <point x="271" y="170"/>
      <point x="329" y="170" type="curve" smooth="yes"/>
      <point x="387" y="170"/>
      <point x="429" y="237"/>
      <point x="429" y="350" type="curve" smooth="yes"/>
      <point x="429" y="463"/>
      <point x="387" y="530"/>
      <point x="329" y="530" type="curve" smooth="yes"/>
      <point x="271" y="530"/>
      <point x="229" y="463"/>
    </contour>
    <contour>
      <point x="19" y="350" type="curve" smooth="yes"/>
      <point x="19" y="589"/>
      <point x="145" y="715"/>
      <point x="329" y="715" type="curve" smooth="yes"/>
      <point x="523" y="715"/>
      <point x="639" y="589"/>
      <point x="639" y="350" type="curve" smooth="yes"/>
      <point x="639" y="111"/>
      <point x="523" y="-15"/>
      <point x="329" y="-15" type="curve" smooth="yes"/>
      <point x="145" y="-15"/>
      <point x="19" y="111"/>
    </contour>
  </outline>
</glyph>
<glyph name="uniFF16" format="1">
  <advance width="660"/>
  <unicode hex="FF16"/>
  <outline>
    <contour>
      <point x="235" y="255" type="curve" smooth="yes"/>
      <point x="235" y="199"/>
      <point x="276" y="165"/>
      <point x="329" y="165" type="curve" smooth="yes"/>
      <point x="382" y="165"/>
      <point x="423" y="199"/>
      <point x="423" y="255" type="curve" smooth="yes"/>
      <point x="423" y="311"/>
      <point x="382" y="347"/>
      <point x="329" y="347" type="curve" smooth="yes"/>
      <point x="276" y="347"/>
      <point x="235" y="311"/>
    </contour>
    <contour>
      <point x="301" y="695" type="line"/>
      <point x="580" y="695" type="line"/>
      <point x="349" y="464" type="line"/>
      <point x="297" y="437" type="line"/>
      <point x="341" y="475"/>
      <point x="367" y="483"/>
      <point x="420" y="483" type="curve" smooth="yes"/>
      <point x="519" y="483"/>
      <point x="642" y="404"/>
      <point x="642" y="255" type="curve" smooth="yes"/>
      <point x="642" y="66"/>
      <point x="499" y="-20"/>
      <point x="329" y="-20" type="curve" smooth="yes"/>
      <point x="159" y="-20"/>
      <point x="16" y="66"/>
      <point x="16" y="255" type="curve" smooth="yes"/>
      <point x="16" y="342"/>
      <point x="63" y="412"/>
      <point x="120" y="480" type="curve" smooth="yes"/>
    </contour>
  </outline>
</glyph>
<glyph name="adieresis.alt" format="1">
  <advance width="645"/>
  <outline>
    <contour>
      <point x="400" y="460" type="line"/>
      <point x="595" y="460" type="line"/>
      <point x="595" y="0" type="line"/>
      <point x="400" y="0" type="line"/>
    </contour>
    <contour>
      <point x="30" y="230" type="curve" smooth="yes"/>
      <point x="30" y="399"/>
      <point x="138" y="480"/>
      <point x="243" y="480" type="curve" smooth="yes"/>
      <point x="368" y="480"/>
      <point x="436" y="379"/>
      <point x="436" y="230" type="curve" smooth="yes"/>
      <point x="436" y="81"/>
      <point x="368" y="-20"/>
      <point x="243" y="-20" type="curve" smooth="yes"/>
      <point x="138" y="-20"/>
      <point x="30" y="61"/>
    </contour>
    <contour>
      <point x="236" y="230" type="curve" smooth="yes"/>
      <point x="236" y="179"/>
      <point x="273" y="150"/>
      <point x="318" y="150" type="curve" smooth="yes"/>
      <point x="358" y="150"/>
      <point x="400" y="174"/>
      <point x="400" y="230" type="curve" smooth="yes"/>
      <point x="400" y="286"/>
      <point x="358" y="310"/>
      <point x="318" y="310" type="curve" smooth="yes"/>
      <point x="273" y="310"/>
      <point x="236" y="281"/>
    </contour>
    <contour>
      <point x="360" y="655" type="curve" smooth="yes"/>
      <point x="360" y="718"/>
      <point x="408" y="770"/>
      <point x="478" y="770" type="curve" smooth="yes"/>
      <point x="548" y="770"/>
      <point x="596" y="718"/>
      <point x="596" y="655" type="curve" smooth="yes"/>
      <point x="596" y="592"/>
      <point x="548" y="540"/>
      <point x="478" y="540" type="curve" smooth="yes"/>
      <point x="408" y="540"/>
      <point x="360" y="592"/>
    </contour>
    <contour>
      <point x="90" y="655" type="curve" smooth="yes"/>
      <point x="90" y="718"/>
      <point x="138" y="770"/>
      <point x="208" y="770" type="curve" smooth="yes"/>
      <point x="278" y="770"/>
      <point x="326" y="718"/>
      <point x="326" y="655" type="curve" smooth="yes"/>
      <point x="326" y="592"/>
      <point x="278" y="540"/>
      <point x="208" y="540" type="curve" smooth="yes"/>
      <point x="138" y="540"/>
      <point x="90" y="592"/>
    </contour>
  </outline>
</glyph>
<glyph name="aring.alt" format="1">
  <advance width="645"/>
  <outline>
    <contour>
      <point x="400" y="460" type="line"/>
      <point x="595" y="460" type="line"/>
      <point x="595" y="0" type="line"/>
      <point x="400" y="0" type="line"/>
    </contour>
    <contour>
      <point x="30" y="230" type="curve" smooth="yes"/>
      <point x="30" y="399"/>
      <point x="138" y="480"/>
      <point x="243" y="480" type="curve" smooth="yes"/>
      <point x="368" y="480"/>
      <point x="436" y="379"/>
      <point x="436" y="230" type="curve" smooth="yes"/>
      <point x="436" y="81"/>
      <point x="368" y="-20"/>
      <point x="243" y="-20" type="curve" smooth="yes"/>
      <point x="138" y="-20"/>
      <point x="30" y="61"/>
    </contour>
    <contour>
      <point x="236" y="230" type="curve" smooth="yes"/>
      <point x="236" y="179"/>
      <point x="273" y="150"/>
      <point x="318" y="150" type="curve" smooth="yes"/>
      <point x="358" y="150"/>
      <point x="400" y="174"/>
      <point x="400" y="230" type="curve" smooth="yes"/>
      <point x="400" y="286"/>
      <point x="358" y="310"/>
      <point x="318" y="310" type="curve" smooth="yes"/>
      <point x="273" y="310"/>
      <point x="236" y="281"/>
    </contour>
    <contour>
      <point x="228" y="627" type="curve" smooth="yes"/>
      <point x="228" y="701"/>
      <point x="286" y="752"/>
      <point x="366" y="752" type="curve" smooth="yes"/>
      <point x="446" y="752"/>
      <point x="506" y="701"/>
      <point x="506" y="627" type="curve" smooth="yes"/>
      <point x="506" y="553"/>
      <point x="446" y="502"/>
      <point x="366" y="502" type="curve" smooth="yes"/>
      <point x="286" y="502"/>
      <point x="228" y="553"/>
    </contour>
    <contour>
      <point x="323" y="627" type="curve" smooth="yes"/>
      <point x="323" y="599"/>
      <point x="341" y="583"/>
      <point x="366" y="583" type="curve" smooth="yes"/>
      <point x="391" y="583"/>
      <point x="410" y="599"/>
      <point x="410" y="627" type="curve" smooth="yes"/>
      <point x="410" y="655"/>
      <point x="391" y="672"/>
      <point x="366" y="672" type="curve" smooth="yes"/>
      <point x="341" y="672"/>
      <point x="323" y="655"/>
    </contour>
  </outline>
</glyph>
<glyph name="atilde.alt" format="1">
  <advance width="645"/>
  <outline>
    <contour>
      <point x="400" y="460" type="line"/>
      <point x="595" y="460" type="line"/>
      <point x="595" y="0" type="line"/>
      <point x="400" y="0" type="line"/>
    </contour>
    <contour>
      <point x="30" y="230" type="curve" smooth="yes"/>
      <point x="30" y="399"/>
      <point x="138" y="480"/>
      <point x="243" y="480" type="curve" smooth="yes"/>
      <point x="368" y="480"/>
      <point x="436" y="379"/>
      <point x="436" y="230" type="curve" smooth="yes"/>
      <point x="436" y="81"/>
      <point x="368" y="-20"/>
      <point x="243" y="-20" type="curve" smooth="yes"/>
      <point x="138" y="-20"/>
      <point x="30" y="61"/>
    </contour>
    <contour>
      <point x="236" y="230" type="curve" smooth="yes"/>
      <point x="236" y="179"/>
      <point x="273" y="150"/>
      <point x="318" y="150" type="curve" smooth="yes"/>
      <point x="358" y="150"/>
      <point x="400" y="174"/>
      <point x="400" y="230" type="curve" smooth="yes"/>
      <point x="400" y="286"/>
      <point x="358" y="310"/>
      <point x="318" y="310" type="curve" smooth="yes"/>
      <point x="273" y="310"/>
      <point x="236" y="281"/>
    </contour>
    <contour>
      <point x="128" y="617" type="line"/>
      <point x="138" y="666"/>
      <point x="182" y="719"/>
      <point x="257" y="719" type="curve" smooth="yes"/>
      <point x="324" y="719"/>
      <point x="343" y="664"/>
      <point x="401" y="664" type="curve" smooth="yes"/>
      <point x="430" y="664"/>
      <point x="452" y="688"/>
      <point x="472" y="720" type="curve"/>
      <point x="558" y="627" type="line"/>
      <point x="542" y="590"/>
      <point x="477" y="534"/>
      <point x="407" y="534" type="curve" smooth="yes"/>
      <point x="352" y="534"/>
      <point x="308" y="591"/>
      <point x="256" y="591" type="curve" smooth="yes"/>
      <point x="220" y="591"/>
      <point x="211" y="555"/>
      <point x="211" y="540" type="curve"/>
    </contour>
  </outline>
</glyph>
